<?xml version="1.0" encoding="UTF-8"?>
<svg id="uuid-792c2e59-b9f5-4506-aa59-4f32d24ac922" data-name="图层 1" xmlns="http://www.w3.org/2000/svg" viewBox="0 0 510.24 510.24">
  <defs>
    <style>
      .uuid-5b5d5d79-b2a7-424a-8dc2-a0a2ac5417ad {
        fill: #fff;
      }
    </style>
  </defs>
  <circle class="uuid-5b5d5d79-b2a7-424a-8dc2-a0a2ac5417ad" cx="255.12" cy="255.12" r="146.97"/>
  <polygon class="uuid-5b5d5d79-b2a7-424a-8dc2-a0a2ac5417ad" points="255.12 29.91 226.84 93.77 283.4 93.77 255.12 29.91"/>
  <polygon class="uuid-5b5d5d79-b2a7-424a-8dc2-a0a2ac5417ad" points="255.12 480.33 226.84 416.47 283.4 416.47 255.12 480.33"/>
  <polygon class="uuid-5b5d5d79-b2a7-424a-8dc2-a0a2ac5417ad" points="29.91 255.12 93.77 283.4 93.77 226.84 29.91 255.12"/>
  <polygon class="uuid-5b5d5d79-b2a7-424a-8dc2-a0a2ac5417ad" points="480.33 255.12 416.47 283.4 416.47 226.84 480.33 255.12"/>
  <polygon class="uuid-5b5d5d79-b2a7-424a-8dc2-a0a2ac5417ad" points="142.82 59.7 150.26 129.15 199.25 100.87 142.82 59.7"/>
  <polygon class="uuid-5b5d5d79-b2a7-424a-8dc2-a0a2ac5417ad" points="368.03 449.77 311.61 408.61 360.59 380.33 368.03 449.77"/>
  <polygon class="uuid-5b5d5d79-b2a7-424a-8dc2-a0a2ac5417ad" points="60.39 367.34 129.84 359.91 101.55 310.92 60.39 367.34"/>
  <polygon class="uuid-5b5d5d79-b2a7-424a-8dc2-a0a2ac5417ad" points="450.46 142.13 409.3 198.56 381.02 149.57 450.46 142.13"/>
  <polygon class="uuid-5b5d5d79-b2a7-424a-8dc2-a0a2ac5417ad" points="60.39 142.13 101.55 198.56 129.84 149.57 60.39 142.13"/>
  <polygon class="uuid-5b5d5d79-b2a7-424a-8dc2-a0a2ac5417ad" points="450.46 367.34 381.02 359.91 409.3 310.92 450.46 367.34"/>
  <polygon class="uuid-5b5d5d79-b2a7-424a-8dc2-a0a2ac5417ad" points="142.82 449.77 199.25 408.61 150.26 380.33 142.82 449.77"/>
  <polygon class="uuid-5b5d5d79-b2a7-424a-8dc2-a0a2ac5417ad" points="368.03 59.7 360.59 129.15 311.61 100.87 368.03 59.7"/>
</svg>